<svg width="480" height="97" viewBox="0 0 480 97" fill="none" xmlns="http://www.w3.org/2000/svg">
<path d="M97 48.5C97 75.2859 75.2859 97 48.5 97C21.7141 97 0 75.2859 0 48.5C0 21.7141 21.7141 0 48.5 0C75.2859 0 97 21.7141 97 48.5ZM69.2981 41.5907C70.2636 35.1373 65.3494 31.668 58.6301 29.3536L60.8098 20.6115L55.4879 19.2854L53.3658 27.7971C51.9668 27.4485 50.5298 27.1197 49.102 26.7939L51.2393 18.2262L45.9203 16.9001L43.7392 25.6391C42.581 25.3753 41.4442 25.1146 40.3409 24.8404L40.3469 24.813L33.0074 22.9806L31.5917 28.6641C31.5917 28.6641 35.5403 29.569 35.457 29.6249C37.6125 30.1629 38.0021 31.5891 37.9368 32.7197L35.4539 42.6788C35.6025 42.7168 35.795 42.7713 36.0071 42.8562C35.8298 42.8122 35.6403 42.7637 35.4447 42.7168L31.9644 56.6679C31.7006 57.3227 31.0322 58.3048 29.5255 57.9321C29.5785 58.0093 25.6573 56.9666 25.6573 56.9666L23.0152 63.0578L29.9409 64.7841C31.2293 65.1069 32.4921 65.4449 33.7349 65.7631L31.5324 74.6051L36.8483 75.9313L39.0294 67.1831C40.4391 67.5651 41.853 67.932 43.2706 68.2835L41.0969 76.9906L46.4188 78.3167L48.6213 69.4913C57.6962 71.2086 64.5204 70.5159 67.3927 62.3088C69.7074 55.7007 67.2775 51.8889 62.5028 49.4033C65.9799 48.6019 68.5993 46.315 69.2981 41.5907ZM57.1385 58.6398C55.4938 65.248 44.3666 61.6756 40.759 60.7799L43.6815 49.0658C47.2889 49.966 58.8573 51.7483 57.1385 58.6398ZM58.7845 41.4953C57.284 47.5061 48.0224 44.4522 45.0182 43.7036L47.6677 33.0792C50.6721 33.8278 60.3473 35.2251 58.7845 41.4953Z" fill="#FBC610"/>
<path d="M150.264 49.95V39.8H155.814C159.764 39.8 161.514 41.7 161.514 44.9C161.514 48 159.764 49.95 155.814 49.95H150.264ZM168.714 44.9C168.714 38.85 164.514 34.1 156.114 34.1H143.264V69H150.264V55.6H156.114C165.114 55.6 168.714 50.2 168.714 44.9ZM200.434 55.15C200.434 46.4 194.184 40.85 186.184 40.85C178.184 40.85 171.934 46.4 171.934 55.15C171.934 63.85 177.984 69.45 185.984 69.45C194.034 69.45 200.434 63.85 200.434 55.15ZM179.034 55.15C179.034 49.6 182.384 46.95 186.084 46.95C189.784 46.95 193.234 49.6 193.234 55.15C193.234 60.65 189.684 63.35 185.984 63.35C182.234 63.35 179.034 60.65 179.034 55.15ZM231.719 41.3H224.669V56.55C224.669 61 222.269 63.4 218.469 63.4C214.769 63.4 212.319 61 212.319 56.55V41.3H205.319V57.55C205.319 65.15 209.969 69.35 216.419 69.35C219.869 69.35 222.919 67.85 224.669 65.5V69H231.719V41.3ZM245.626 45.3V41.3H238.626V82.2H245.626V65.05C247.326 67.3 250.426 69.45 254.776 69.45C261.876 69.45 267.426 63.7 267.426 55.05C267.426 46.4 261.876 40.85 254.776 40.85C250.476 40.85 247.276 42.95 245.626 45.3ZM260.276 55.05C260.276 60.3 256.726 63.3 252.926 63.3C249.176 63.3 245.626 60.4 245.626 55.15C245.626 49.9 249.176 47 252.926 47C256.726 47 260.276 49.8 260.276 55.05ZM270.712 55.05C270.712 63.7 276.313 69.45 283.313 69.45C287.713 69.45 290.863 67.35 292.513 64.95V69H299.563V41.3H292.513V45.25C290.863 42.95 287.813 40.85 283.363 40.85C276.313 40.85 270.712 46.4 270.712 55.05ZM292.513 55.15C292.513 60.4 289.013 63.3 285.163 63.3C281.413 63.3 277.863 60.3 277.863 55.05C277.863 49.8 281.413 47 285.163 47C289.013 47 292.513 49.9 292.513 55.15ZM325.799 69H332.799V52.75C332.799 45.1 328.199 40.9 321.749 40.9C318.199 40.9 315.199 42.4 313.399 44.75V41.3H306.399V69H313.399V53.7C313.399 49.25 315.849 46.85 319.649 46.85C323.349 46.85 325.799 49.25 325.799 53.7V69ZM337.656 55.15C337.656 63.85 343.356 69.45 351.356 69.45C358.256 69.45 362.906 65.55 364.406 59.65H356.856C356.006 62.15 354.206 63.45 351.306 63.45C347.406 63.45 344.806 60.55 344.806 55.15C344.806 49.75 347.406 46.8 351.306 46.8C354.206 46.8 356.056 48.3 356.856 50.65H364.406C362.906 44.45 358.256 40.85 351.356 40.85C343.356 40.85 337.656 46.45 337.656 55.15ZM369.534 69H376.534V41.3H369.534V69ZM373.084 38C375.534 38 377.384 36.2 377.384 33.9C377.384 31.6 375.534 29.8 373.084 29.8C370.584 29.8 368.784 31.6 368.784 33.9C368.784 36.2 370.584 38 373.084 38ZM402.85 69H409.85V52.75C409.85 45.1 405.25 40.9 398.8 40.9C395.25 40.9 392.25 42.4 390.45 44.75V41.3H383.45V69H390.45V53.7C390.45 49.25 392.9 46.85 396.7 46.85C400.4 46.85 402.85 49.25 402.85 53.7V69ZM416.507 69H423.507V53.7C423.507 49.25 425.957 46.85 429.757 46.85C433.457 46.85 435.907 49.25 435.907 53.7V69H442.907V52.75C442.907 45.1 438.357 40.9 432.107 40.9C428.407 40.9 425.307 42.4 423.507 44.75V32H416.507V69ZM447.763 55.05C447.763 63.7 453.363 69.45 460.363 69.45C464.763 69.45 467.913 67.35 469.563 64.95V69H476.613V41.3H469.563V45.25C467.913 42.95 464.863 40.85 460.413 40.85C453.363 40.85 447.763 46.4 447.763 55.05ZM469.563 55.15C469.563 60.4 466.063 63.3 462.213 63.3C458.463 63.3 454.913 60.3 454.913 55.05C454.913 49.8 458.463 47 462.213 47C466.063 47 469.563 49.9 469.563 55.15Z" fill="white"/>
</svg>
