<svg width="97" height="97" viewBox="0 0 97 97" fill="none" xmlns="http://www.w3.org/2000/svg">
<path d="M97 48.5C97 75.2859 75.2859 97 48.5 97C21.7141 97 0 75.2859 0 48.5C0 21.7141 21.7141 0 48.5 0C75.2859 0 97 21.7141 97 48.5ZM69.2981 41.5907C70.2636 35.1373 65.3494 31.668 58.6301 29.3536L60.8098 20.6115L55.4879 19.2854L53.3658 27.7971C51.9668 27.4485 50.5298 27.1197 49.102 26.7939L51.2393 18.2262L45.9203 16.9001L43.7392 25.6391C42.581 25.3753 41.4442 25.1146 40.3409 24.8404L40.3469 24.813L33.0074 22.9806L31.5917 28.6641C31.5917 28.6641 35.5403 29.569 35.457 29.6249C37.6125 30.1629 38.0021 31.5891 37.9368 32.7197L35.4539 42.6788C35.6025 42.7168 35.795 42.7713 36.0071 42.8562C35.8298 42.8122 35.6403 42.7637 35.4447 42.7168L31.9644 56.6679C31.7006 57.3227 31.0322 58.3048 29.5255 57.9321C29.5785 58.0093 25.6573 56.9666 25.6573 56.9666L23.0152 63.0578L29.9409 64.7841C31.2293 65.1069 32.4921 65.4449 33.7349 65.7631L31.5324 74.6051L36.8483 75.9313L39.0294 67.1831C40.4391 67.5651 41.853 67.932 43.2706 68.2835L41.0969 76.9906L46.4188 78.3167L48.6213 69.4913C57.6962 71.2086 64.5204 70.5159 67.3927 62.3088C69.7074 55.7007 67.2775 51.8889 62.5028 49.4033C65.9799 48.6019 68.5993 46.315 69.2981 41.5907ZM57.1385 58.6398C55.4938 65.248 44.3666 61.6756 40.759 60.7799L43.6815 49.0658C47.2889 49.966 58.8573 51.7483 57.1385 58.6398ZM58.7845 41.4953C57.284 47.5061 48.0224 44.4522 45.0182 43.7036L47.6677 33.0792C50.6721 33.8278 60.3473 35.2251 58.7845 41.4953Z" fill="#FBC610"/>
</svg>
